#define close_width 10
#define close_height 10
static unsigned char close_bits[] = {
   0xff, 0x03, 0xff, 0x03, 0xff, 0x03, 0xff, 0x03, 0xff, 0x03, 0x01, 0x02,
   0x00, 0x00, 0x01, 0x02, 0xff, 0x03, 0xff, 0x03 };
